<svg xmlns="http://www.w3.org/2000/svg" aria-label="Vite logo" role="img" viewBox="0 0 410 404">
  <path fill="#646cff" d="M399.6 59.5 215.7 388.3c-3.8 6.9-13.7 7-17.7.2L10.6 59.6c-4.2-7.4 2.1-16.3 10.5-14.8l184.3 32.9c1.1.2 2.2.2 3.3 0l180.2-32.8c8.3-1.5 14.7 7.4 10.7 14.6Z" />
  <path fill="#ffd62e" d="M292 1.6 155.9 28.2c-2.2.4-3.8 2.3-3.9 4.5l-8.4 142.3c-.2 3.3 2.8 5.8 6 5.1l37.9-8.7c3.5-.8 6.7 2.3 6 5.8l-11.3 55.3c-.7 3.6 2.7 6.7 6.2 5.6l23.4-7.1c3.5-1.1 6.9 2 6.2 5.6l-17.9 86.5c-1 5.2 5.9 8 8.6 3.5l1.8-3.1 111-221.5c1.8-3.7-1.3-7.9-5.4-7.1l-39 7.5c-3.7.7-6.8-2.8-5.7-6.4l25.4-88.2c1.1-3.7-2.2-7.1-5.9-6.4Z" />
</svg>
